<?xml version="1.0" encoding="utf-8"?>
<!-- Generator: Circuit Diagram, cdlibrary.dll 4.0.0.0 -->
<!DOCTYPE svg PUBLIC "-//W3C//DTD SVG 1.1//EN" "http://www.w3.org/Graphics/SVG/1.1/DTD/svg11.dtd">
<svg version="1.1" width="300" height="400" xmlns="http://www.w3.org/2000/svg">
	<line x1="60" y1="360" x2="157" y2="360" style="stroke:rgb(0, 0, 0);stroke-linecap:square;stroke-width:2" />
	<line x1="157" y1="350" x2="157" y2="370" style="stroke:rgb(0, 0, 0);stroke-linecap:square;stroke-width:2" />
	<line x1="163" y1="355" x2="163" y2="365" style="stroke:rgb(0, 0, 0);stroke-linecap:square;stroke-width:3" />
	<line x1="163" y1="360" x2="260" y2="360" style="stroke:rgb(0, 0, 0);stroke-linecap:square;stroke-width:2" />
	<text x="160" y="348" style="font-family:Arial;font-size:12px;text-anchor:middle" dominant-baseline="baseline" transform="rotate(0, 160, 348)">+20V</text>
	<line x1="260" y1="260" x2="260" y2="290" style="stroke:rgb(0, 0, 0);stroke-linecap:square;stroke-width:2" />
	<line x1="260" y1="330" x2="260" y2="360" style="stroke:rgb(0, 0, 0);stroke-linecap:square;stroke-width:2" />
	<rect x="252" y="290" width="16" height="40" style="fill-opacity:0;fill:rgb(0, 0, 0);stroke:rgb(0, 0, 0);stroke-width:2" />
	<text x="246" y="310" style="font-family:Arial;font-size:11px;text-anchor:end" dominant-baseline="middle" transform="rotate(0, 246, 310)">1 Ω</text>
	<line x1="60" y1="260" x2="60" y2="290" style="stroke:rgb(0, 0, 0);stroke-linecap:square;stroke-width:2" />
	<line x1="60" y1="330" x2="60" y2="360" style="stroke:rgb(0, 0, 0);stroke-linecap:square;stroke-width:2" />
	<rect x="52" y="290" width="16" height="40" style="fill-opacity:0;fill:rgb(0, 0, 0);stroke:rgb(0, 0, 0);stroke-width:2" />
	<text x="46" y="310" style="font-family:Arial;font-size:11px;text-anchor:end" dominant-baseline="middle" transform="rotate(0, 46, 310)">1 Ω</text>
	<line x1="160" y1="260" x2="190" y2="260" style="stroke:rgb(0, 0, 0);stroke-linecap:square;stroke-width:2" />
	<line x1="230" y1="260" x2="260" y2="260" style="stroke:rgb(0, 0, 0);stroke-linecap:square;stroke-width:2" />
	<rect x="190" y="252" width="40" height="16" style="fill-opacity:0;fill:rgb(0, 0, 0);stroke:rgb(0, 0, 0);stroke-width:2" />
	<text x="210" y="246" style="font-family:Arial;font-size:11px;text-anchor:middle" dominant-baseline="baseline" transform="rotate(0, 210, 246)">1 Ω</text>
	<line x1="160" y1="260" x2="113" y2="260" style="stroke:rgb(0, 0, 0);stroke-linecap:square;stroke-width:2" />
	<line x1="113" y1="250" x2="113" y2="270" style="stroke:rgb(0, 0, 0);stroke-linecap:square;stroke-width:2" />
	<line x1="107" y1="255" x2="107" y2="265" style="stroke:rgb(0, 0, 0);stroke-linecap:square;stroke-width:3" />
	<line x1="107" y1="260" x2="60" y2="260" style="stroke:rgb(0, 0, 0);stroke-linecap:square;stroke-width:2" />
	<text x="110" y="248" style="font-family:Arial;font-size:12px;text-anchor:middle" dominant-baseline="baseline" transform="rotate(0, 110, 248)">+5V</text>
	<line x1="60" y1="160" x2="60" y2="190" style="stroke:rgb(0, 0, 0);stroke-linecap:square;stroke-width:2" />
	<line x1="60" y1="230" x2="60" y2="260" style="stroke:rgb(0, 0, 0);stroke-linecap:square;stroke-width:2" />
	<rect x="52" y="190" width="16" height="40" style="fill-opacity:0;fill:rgb(0, 0, 0);stroke:rgb(0, 0, 0);stroke-width:2" />
	<text x="46" y="210" style="font-family:Arial;font-size:11px;text-anchor:end" dominant-baseline="middle" transform="rotate(0, 46, 210)">1 Ω</text>
	<line x1="260" y1="160" x2="260" y2="190" style="stroke:rgb(0, 0, 0);stroke-linecap:square;stroke-width:2" />
	<line x1="260" y1="230" x2="260" y2="260" style="stroke:rgb(0, 0, 0);stroke-linecap:square;stroke-width:2" />
	<rect x="252" y="190" width="16" height="40" style="fill-opacity:0;fill:rgb(0, 0, 0);stroke:rgb(0, 0, 0);stroke-width:2" />
	<text x="246" y="210" style="font-family:Arial;font-size:11px;text-anchor:end" dominant-baseline="middle" transform="rotate(0, 246, 210)">1 Ω</text>
	<line x1="60" y1="160" x2="140" y2="160" style="stroke:rgb(0, 0, 0);stroke-linecap:square;stroke-width:2" />
	<line x1="180" y1="160" x2="260" y2="160" style="stroke:rgb(0, 0, 0);stroke-linecap:square;stroke-width:2" />
	<rect x="140" y="152" width="40" height="16" style="fill-opacity:0;fill:rgb(0, 0, 0);stroke:rgb(0, 0, 0);stroke-width:2" />
	<text x="160" y="146" style="font-family:Arial;font-size:11px;text-anchor:middle" dominant-baseline="baseline" transform="rotate(0, 160, 146)">3 Ω</text>
	<line x1="260" y1="60" x2="260" y2="90" style="stroke:rgb(0, 0, 0);stroke-linecap:square;stroke-width:2" />
	<line x1="260" y1="130" x2="260" y2="160" style="stroke:rgb(0, 0, 0);stroke-linecap:square;stroke-width:2" />
	<rect x="252" y="90" width="16" height="40" style="fill-opacity:0;fill:rgb(0, 0, 0);stroke:rgb(0, 0, 0);stroke-width:2" />
	<text x="246" y="110" style="font-family:Arial;font-size:11px;text-anchor:end" dominant-baseline="middle" transform="rotate(0, 246, 110)">4 Ω</text>
	<line x1="60" y1="60" x2="60" y2="90" style="stroke:rgb(0, 0, 0);stroke-linecap:square;stroke-width:2" />
	<line x1="60" y1="130" x2="60" y2="160" style="stroke:rgb(0, 0, 0);stroke-linecap:square;stroke-width:2" />
	<rect x="52" y="90" width="16" height="40" style="fill-opacity:0;fill:rgb(0, 0, 0);stroke:rgb(0, 0, 0);stroke-width:2" />
	<text x="46" y="110" style="font-family:Arial;font-size:11px;text-anchor:end" dominant-baseline="middle" transform="rotate(0, 46, 110)">4 Ω</text>
	<line x1="60" y1="60" x2="157" y2="60" style="stroke:rgb(0, 0, 0);stroke-linecap:square;stroke-width:2" />
	<line x1="157" y1="50" x2="157" y2="70" style="stroke:rgb(0, 0, 0);stroke-linecap:square;stroke-width:2" />
	<line x1="163" y1="55" x2="163" y2="65" style="stroke:rgb(0, 0, 0);stroke-linecap:square;stroke-width:3" />
	<line x1="163" y1="60" x2="260" y2="60" style="stroke:rgb(0, 0, 0);stroke-linecap:square;stroke-width:2" />
	<text x="160" y="48" style="font-family:Arial;font-size:12px;text-anchor:middle" dominant-baseline="baseline" transform="rotate(0, 160, 48)">+30V</text>
	<ellipse cx="260" cy="260" rx="2" ry="2" style="fill-opacity:1;fill:rgb(0, 0, 0);stroke:rgb(0, 0, 0);stroke-width:2" />
	<ellipse cx="60" cy="260" rx="2" ry="2" style="fill-opacity:1;fill:rgb(0, 0, 0);stroke:rgb(0, 0, 0);stroke-width:2" />
	<ellipse cx="60" cy="160" rx="2" ry="2" style="fill-opacity:1;fill:rgb(0, 0, 0);stroke:rgb(0, 0, 0);stroke-width:2" />
	<ellipse cx="260" cy="160" rx="2" ry="2" style="fill-opacity:1;fill:rgb(0, 0, 0);stroke:rgb(0, 0, 0);stroke-width:2" />
</svg>